<mxfile host="app.diagrams.net" modified="2023-03-23T19:06:22.822Z" agent="Mozilla/5.0 (Windows NT 10.0; Win64; x64; rv:109.0) Gecko/20100101 Firefox/111.0" etag="mfCVLMH40onX8eQIR9Qm" version="21.1.0">
  <diagram name="Page-1" id="9jt-Ksy0k1KrUPwHcIz0">
    <mxGraphModel dx="1078" dy="1704" grid="1" gridSize="10" guides="1" tooltips="1" connect="1" arrows="1" fold="1" page="1" pageScale="1" pageWidth="850" pageHeight="1100" math="0" shadow="0">
      <root>
        <mxCell id="0" />
        <mxCell id="1" parent="0" />
        <mxCell id="o6MVL9wAELzBekAkcaxR-25" value="Modelo Relacional de BD" style="text;html=1;strokeColor=none;fillColor=none;align=left;verticalAlign=middle;whiteSpace=wrap;rounded=0;fontSize=29;fontStyle=1" vertex="1" parent="1">
          <mxGeometry x="30" y="30" width="360" height="80" as="geometry" />
        </mxCell>
        <mxCell id="o6MVL9wAELzBekAkcaxR-26" value="&lt;font style=&quot;font-size: 20px;&quot;&gt;Partidas clasificadas Valorant&lt;/font&gt;" style="text;html=1;strokeColor=none;fillColor=none;align=left;verticalAlign=middle;whiteSpace=wrap;rounded=0;fontSize=24;fontStyle=1" vertex="1" parent="1">
          <mxGeometry x="30" y="110" width="320" height="40" as="geometry" />
        </mxCell>
        <mxCell id="o6MVL9wAELzBekAkcaxR-37" value="matches" style="shape=table;startSize=20;container=1;collapsible=0;childLayout=tableLayout;strokeColor=default;fontSize=16;fontStyle=1" vertex="1" parent="1">
          <mxGeometry x="30" y="230" width="340" height="280" as="geometry" />
        </mxCell>
        <mxCell id="o6MVL9wAELzBekAkcaxR-38" value="" style="shape=tableRow;horizontal=0;startSize=0;swimlaneHead=0;swimlaneBody=0;strokeColor=inherit;top=0;left=0;bottom=0;right=0;collapsible=0;dropTarget=0;fillColor=none;points=[[0,0.5],[1,0.5]];portConstraint=eastwest;fontSize=16;" vertex="1" parent="o6MVL9wAELzBekAkcaxR-37">
          <mxGeometry y="20" width="340" height="31" as="geometry" />
        </mxCell>
        <mxCell id="o6MVL9wAELzBekAkcaxR-39" value="&lt;b&gt;PK&lt;/b&gt;" style="shape=partialRectangle;html=1;whiteSpace=wrap;connectable=0;strokeColor=inherit;overflow=hidden;fillColor=none;top=0;left=0;bottom=0;right=0;pointerEvents=1;fontSize=16;" vertex="1" parent="o6MVL9wAELzBekAkcaxR-38">
          <mxGeometry width="50" height="31" as="geometry">
            <mxRectangle width="50" height="31" as="alternateBounds" />
          </mxGeometry>
        </mxCell>
        <mxCell id="o6MVL9wAELzBekAkcaxR-40" value="&lt;b&gt;match_id(INT AUTO)&lt;/b&gt;" style="shape=partialRectangle;html=1;whiteSpace=wrap;connectable=0;strokeColor=inherit;overflow=hidden;fillColor=none;top=0;left=0;bottom=0;right=0;pointerEvents=1;fontSize=16;" vertex="1" parent="o6MVL9wAELzBekAkcaxR-38">
          <mxGeometry x="50" width="290" height="31" as="geometry">
            <mxRectangle width="290" height="31" as="alternateBounds" />
          </mxGeometry>
        </mxCell>
        <mxCell id="o6MVL9wAELzBekAkcaxR-42" value="" style="shape=tableRow;horizontal=0;startSize=0;swimlaneHead=0;swimlaneBody=0;strokeColor=inherit;top=0;left=0;bottom=0;right=0;collapsible=0;dropTarget=0;fillColor=none;points=[[0,0.5],[1,0.5]];portConstraint=eastwest;fontSize=16;" vertex="1" parent="o6MVL9wAELzBekAkcaxR-37">
          <mxGeometry y="51" width="340" height="35" as="geometry" />
        </mxCell>
        <mxCell id="o6MVL9wAELzBekAkcaxR-43" value="" style="shape=partialRectangle;html=1;whiteSpace=wrap;connectable=0;strokeColor=inherit;overflow=hidden;fillColor=none;top=0;left=0;bottom=0;right=0;pointerEvents=1;fontSize=16;" vertex="1" parent="o6MVL9wAELzBekAkcaxR-42">
          <mxGeometry width="50" height="35" as="geometry">
            <mxRectangle width="50" height="35" as="alternateBounds" />
          </mxGeometry>
        </mxCell>
        <mxCell id="o6MVL9wAELzBekAkcaxR-44" value="date_time (DATETIME)" style="shape=partialRectangle;html=1;whiteSpace=wrap;connectable=0;strokeColor=inherit;overflow=hidden;fillColor=none;top=0;left=0;bottom=0;right=0;pointerEvents=1;fontSize=16;" vertex="1" parent="o6MVL9wAELzBekAkcaxR-42">
          <mxGeometry x="50" width="290" height="35" as="geometry">
            <mxRectangle width="290" height="35" as="alternateBounds" />
          </mxGeometry>
        </mxCell>
        <mxCell id="o6MVL9wAELzBekAkcaxR-46" value="" style="shape=tableRow;horizontal=0;startSize=0;swimlaneHead=0;swimlaneBody=0;strokeColor=inherit;top=0;left=0;bottom=0;right=0;collapsible=0;dropTarget=0;fillColor=none;points=[[0,0.5],[1,0.5]];portConstraint=eastwest;fontSize=16;" vertex="1" parent="o6MVL9wAELzBekAkcaxR-37">
          <mxGeometry y="86" width="340" height="31" as="geometry" />
        </mxCell>
        <mxCell id="o6MVL9wAELzBekAkcaxR-47" value="&lt;b&gt;FK&lt;/b&gt;" style="shape=partialRectangle;html=1;whiteSpace=wrap;connectable=0;strokeColor=inherit;overflow=hidden;fillColor=none;top=0;left=0;bottom=0;right=0;pointerEvents=1;fontSize=16;" vertex="1" parent="o6MVL9wAELzBekAkcaxR-46">
          <mxGeometry width="50" height="31" as="geometry">
            <mxRectangle width="50" height="31" as="alternateBounds" />
          </mxGeometry>
        </mxCell>
        <mxCell id="o6MVL9wAELzBekAkcaxR-48" value="map(INT)" style="shape=partialRectangle;html=1;whiteSpace=wrap;connectable=0;strokeColor=inherit;overflow=hidden;fillColor=none;top=0;left=0;bottom=0;right=0;pointerEvents=1;fontSize=16;" vertex="1" parent="o6MVL9wAELzBekAkcaxR-46">
          <mxGeometry x="50" width="290" height="31" as="geometry">
            <mxRectangle width="290" height="31" as="alternateBounds" />
          </mxGeometry>
        </mxCell>
        <mxCell id="o6MVL9wAELzBekAkcaxR-62" style="shape=tableRow;horizontal=0;startSize=0;swimlaneHead=0;swimlaneBody=0;strokeColor=inherit;top=0;left=0;bottom=0;right=0;collapsible=0;dropTarget=0;fillColor=none;points=[[0,0.5],[1,0.5]];portConstraint=eastwest;fontSize=16;" vertex="1" parent="o6MVL9wAELzBekAkcaxR-37">
          <mxGeometry y="117" width="340" height="34" as="geometry" />
        </mxCell>
        <mxCell id="o6MVL9wAELzBekAkcaxR-63" value="&lt;b&gt;FK&lt;/b&gt;" style="shape=partialRectangle;html=1;whiteSpace=wrap;connectable=0;strokeColor=inherit;overflow=hidden;fillColor=none;top=0;left=0;bottom=0;right=0;pointerEvents=1;fontSize=16;" vertex="1" parent="o6MVL9wAELzBekAkcaxR-62">
          <mxGeometry width="50" height="34" as="geometry">
            <mxRectangle width="50" height="34" as="alternateBounds" />
          </mxGeometry>
        </mxCell>
        <mxCell id="o6MVL9wAELzBekAkcaxR-64" value="agent(INT)" style="shape=partialRectangle;html=1;whiteSpace=wrap;connectable=0;strokeColor=inherit;overflow=hidden;fillColor=none;top=0;left=0;bottom=0;right=0;pointerEvents=1;fontSize=16;" vertex="1" parent="o6MVL9wAELzBekAkcaxR-62">
          <mxGeometry x="50" width="290" height="34" as="geometry">
            <mxRectangle width="290" height="34" as="alternateBounds" />
          </mxGeometry>
        </mxCell>
        <mxCell id="o6MVL9wAELzBekAkcaxR-59" style="shape=tableRow;horizontal=0;startSize=0;swimlaneHead=0;swimlaneBody=0;strokeColor=inherit;top=0;left=0;bottom=0;right=0;collapsible=0;dropTarget=0;fillColor=none;points=[[0,0.5],[1,0.5]];portConstraint=eastwest;fontSize=16;" vertex="1" parent="o6MVL9wAELzBekAkcaxR-37">
          <mxGeometry y="151" width="340" height="32" as="geometry" />
        </mxCell>
        <mxCell id="o6MVL9wAELzBekAkcaxR-60" style="shape=partialRectangle;html=1;whiteSpace=wrap;connectable=0;strokeColor=inherit;overflow=hidden;fillColor=none;top=0;left=0;bottom=0;right=0;pointerEvents=1;fontSize=16;" vertex="1" parent="o6MVL9wAELzBekAkcaxR-59">
          <mxGeometry width="50" height="32" as="geometry">
            <mxRectangle width="50" height="32" as="alternateBounds" />
          </mxGeometry>
        </mxCell>
        <mxCell id="o6MVL9wAELzBekAkcaxR-61" value="score(VARCHAR(5))" style="shape=partialRectangle;html=1;whiteSpace=wrap;connectable=0;strokeColor=inherit;overflow=hidden;fillColor=none;top=0;left=0;bottom=0;right=0;pointerEvents=1;fontSize=16;" vertex="1" parent="o6MVL9wAELzBekAkcaxR-59">
          <mxGeometry x="50" width="290" height="32" as="geometry">
            <mxRectangle width="290" height="32" as="alternateBounds" />
          </mxGeometry>
        </mxCell>
        <mxCell id="o6MVL9wAELzBekAkcaxR-56" style="shape=tableRow;horizontal=0;startSize=0;swimlaneHead=0;swimlaneBody=0;strokeColor=inherit;top=0;left=0;bottom=0;right=0;collapsible=0;dropTarget=0;fillColor=none;points=[[0,0.5],[1,0.5]];portConstraint=eastwest;fontSize=16;" vertex="1" parent="o6MVL9wAELzBekAkcaxR-37">
          <mxGeometry y="183" width="340" height="34" as="geometry" />
        </mxCell>
        <mxCell id="o6MVL9wAELzBekAkcaxR-57" style="shape=partialRectangle;html=1;whiteSpace=wrap;connectable=0;strokeColor=inherit;overflow=hidden;fillColor=none;top=0;left=0;bottom=0;right=0;pointerEvents=1;fontSize=16;" vertex="1" parent="o6MVL9wAELzBekAkcaxR-56">
          <mxGeometry width="50" height="34" as="geometry">
            <mxRectangle width="50" height="34" as="alternateBounds" />
          </mxGeometry>
        </mxCell>
        <mxCell id="o6MVL9wAELzBekAkcaxR-58" value="K/D/A (VARCHAR(9))" style="shape=partialRectangle;html=1;whiteSpace=wrap;connectable=0;strokeColor=inherit;overflow=hidden;fillColor=none;top=0;left=0;bottom=0;right=0;pointerEvents=1;fontSize=16;" vertex="1" parent="o6MVL9wAELzBekAkcaxR-56">
          <mxGeometry x="50" width="290" height="34" as="geometry">
            <mxRectangle width="290" height="34" as="alternateBounds" />
          </mxGeometry>
        </mxCell>
        <mxCell id="o6MVL9wAELzBekAkcaxR-53" style="shape=tableRow;horizontal=0;startSize=0;swimlaneHead=0;swimlaneBody=0;strokeColor=inherit;top=0;left=0;bottom=0;right=0;collapsible=0;dropTarget=0;fillColor=none;points=[[0,0.5],[1,0.5]];portConstraint=eastwest;fontSize=16;" vertex="1" parent="o6MVL9wAELzBekAkcaxR-37">
          <mxGeometry y="217" width="340" height="32" as="geometry" />
        </mxCell>
        <mxCell id="o6MVL9wAELzBekAkcaxR-54" style="shape=partialRectangle;html=1;whiteSpace=wrap;connectable=0;strokeColor=inherit;overflow=hidden;fillColor=none;top=0;left=0;bottom=0;right=0;pointerEvents=1;fontSize=16;" vertex="1" parent="o6MVL9wAELzBekAkcaxR-53">
          <mxGeometry width="50" height="32" as="geometry">
            <mxRectangle width="50" height="32" as="alternateBounds" />
          </mxGeometry>
        </mxCell>
        <mxCell id="o6MVL9wAELzBekAkcaxR-55" value="econ Rating(INT)" style="shape=partialRectangle;html=1;whiteSpace=wrap;connectable=0;strokeColor=inherit;overflow=hidden;fillColor=none;top=0;left=0;bottom=0;right=0;pointerEvents=1;fontSize=16;" vertex="1" parent="o6MVL9wAELzBekAkcaxR-53">
          <mxGeometry x="50" width="290" height="32" as="geometry">
            <mxRectangle width="290" height="32" as="alternateBounds" />
          </mxGeometry>
        </mxCell>
        <mxCell id="o6MVL9wAELzBekAkcaxR-65" style="shape=tableRow;horizontal=0;startSize=0;swimlaneHead=0;swimlaneBody=0;strokeColor=inherit;top=0;left=0;bottom=0;right=0;collapsible=0;dropTarget=0;fillColor=none;points=[[0,0.5],[1,0.5]];portConstraint=eastwest;fontSize=16;" vertex="1" parent="o6MVL9wAELzBekAkcaxR-37">
          <mxGeometry y="249" width="340" height="31" as="geometry" />
        </mxCell>
        <mxCell id="o6MVL9wAELzBekAkcaxR-66" style="shape=partialRectangle;html=1;whiteSpace=wrap;connectable=0;strokeColor=inherit;overflow=hidden;fillColor=none;top=0;left=0;bottom=0;right=0;pointerEvents=1;fontSize=16;" vertex="1" parent="o6MVL9wAELzBekAkcaxR-65">
          <mxGeometry width="50" height="31" as="geometry">
            <mxRectangle width="50" height="31" as="alternateBounds" />
          </mxGeometry>
        </mxCell>
        <mxCell id="o6MVL9wAELzBekAkcaxR-67" value="avg_combat_score(INT)" style="shape=partialRectangle;html=1;whiteSpace=wrap;connectable=0;strokeColor=inherit;overflow=hidden;fillColor=none;top=0;left=0;bottom=0;right=0;pointerEvents=1;fontSize=16;" vertex="1" parent="o6MVL9wAELzBekAkcaxR-65">
          <mxGeometry x="50" width="290" height="31" as="geometry">
            <mxRectangle width="290" height="31" as="alternateBounds" />
          </mxGeometry>
        </mxCell>
        <mxCell id="o6MVL9wAELzBekAkcaxR-93" value="agents" style="shape=table;startSize=20;container=1;collapsible=0;childLayout=tableLayout;strokeColor=default;fontSize=16;fontStyle=1" vertex="1" parent="1">
          <mxGeometry x="520" y="400" width="240" height="510" as="geometry" />
        </mxCell>
        <mxCell id="o6MVL9wAELzBekAkcaxR-255" style="shape=tableRow;horizontal=0;startSize=0;swimlaneHead=0;swimlaneBody=0;strokeColor=inherit;top=0;left=0;bottom=0;right=0;collapsible=0;dropTarget=0;fillColor=none;points=[[0,0.5],[1,0.5]];portConstraint=eastwest;fontSize=16;" vertex="1" parent="o6MVL9wAELzBekAkcaxR-93">
          <mxGeometry y="20" width="240" height="24" as="geometry" />
        </mxCell>
        <mxCell id="o6MVL9wAELzBekAkcaxR-256" value="&lt;b&gt;PK&lt;/b&gt;" style="shape=partialRectangle;html=1;whiteSpace=wrap;connectable=0;strokeColor=inherit;overflow=hidden;fillColor=none;top=0;left=0;bottom=0;right=0;pointerEvents=1;fontSize=16;" vertex="1" parent="o6MVL9wAELzBekAkcaxR-255">
          <mxGeometry width="51" height="24" as="geometry">
            <mxRectangle width="51" height="24" as="alternateBounds" />
          </mxGeometry>
        </mxCell>
        <mxCell id="o6MVL9wAELzBekAkcaxR-257" value="agent_id(INT_AUTO)" style="shape=partialRectangle;html=1;whiteSpace=wrap;connectable=0;strokeColor=inherit;overflow=hidden;fillColor=none;top=0;left=0;bottom=0;right=0;pointerEvents=1;fontSize=16;" vertex="1" parent="o6MVL9wAELzBekAkcaxR-255">
          <mxGeometry x="51" width="189" height="24" as="geometry">
            <mxRectangle width="189" height="24" as="alternateBounds" />
          </mxGeometry>
        </mxCell>
        <mxCell id="o6MVL9wAELzBekAkcaxR-94" value="" style="shape=tableRow;horizontal=0;startSize=0;swimlaneHead=0;swimlaneBody=0;strokeColor=inherit;top=0;left=0;bottom=0;right=0;collapsible=0;dropTarget=0;fillColor=none;points=[[0,0.5],[1,0.5]];portConstraint=eastwest;fontSize=16;" vertex="1" parent="o6MVL9wAELzBekAkcaxR-93">
          <mxGeometry y="44" width="240" height="24" as="geometry" />
        </mxCell>
        <mxCell id="o6MVL9wAELzBekAkcaxR-233" value="1" style="shape=partialRectangle;html=1;whiteSpace=wrap;connectable=0;strokeColor=inherit;overflow=hidden;fillColor=none;top=0;left=0;bottom=0;right=0;pointerEvents=1;fontSize=16;" vertex="1" parent="o6MVL9wAELzBekAkcaxR-94">
          <mxGeometry width="51" height="24" as="geometry">
            <mxRectangle width="51" height="24" as="alternateBounds" />
          </mxGeometry>
        </mxCell>
        <mxCell id="o6MVL9wAELzBekAkcaxR-95" value="astra" style="shape=partialRectangle;html=1;whiteSpace=wrap;connectable=0;strokeColor=inherit;overflow=hidden;fillColor=none;top=0;left=0;bottom=0;right=0;pointerEvents=1;fontSize=16;" vertex="1" parent="o6MVL9wAELzBekAkcaxR-94">
          <mxGeometry x="51" width="189" height="24" as="geometry">
            <mxRectangle width="189" height="24" as="alternateBounds" />
          </mxGeometry>
        </mxCell>
        <mxCell id="o6MVL9wAELzBekAkcaxR-163" style="shape=tableRow;horizontal=0;startSize=0;swimlaneHead=0;swimlaneBody=0;strokeColor=inherit;top=0;left=0;bottom=0;right=0;collapsible=0;dropTarget=0;fillColor=none;points=[[0,0.5],[1,0.5]];portConstraint=eastwest;fontSize=16;" vertex="1" parent="o6MVL9wAELzBekAkcaxR-93">
          <mxGeometry y="68" width="240" height="23" as="geometry" />
        </mxCell>
        <mxCell id="o6MVL9wAELzBekAkcaxR-234" value="2" style="shape=partialRectangle;html=1;whiteSpace=wrap;connectable=0;strokeColor=inherit;overflow=hidden;fillColor=none;top=0;left=0;bottom=0;right=0;pointerEvents=1;fontSize=16;" vertex="1" parent="o6MVL9wAELzBekAkcaxR-163">
          <mxGeometry width="51" height="23" as="geometry">
            <mxRectangle width="51" height="23" as="alternateBounds" />
          </mxGeometry>
        </mxCell>
        <mxCell id="o6MVL9wAELzBekAkcaxR-164" value="&lt;div&gt;breach&lt;/div&gt;" style="shape=partialRectangle;html=1;whiteSpace=wrap;connectable=0;strokeColor=inherit;overflow=hidden;fillColor=none;top=0;left=0;bottom=0;right=0;pointerEvents=1;fontSize=16;" vertex="1" parent="o6MVL9wAELzBekAkcaxR-163">
          <mxGeometry x="51" width="189" height="23" as="geometry">
            <mxRectangle width="189" height="23" as="alternateBounds" />
          </mxGeometry>
        </mxCell>
        <mxCell id="o6MVL9wAELzBekAkcaxR-161" style="shape=tableRow;horizontal=0;startSize=0;swimlaneHead=0;swimlaneBody=0;strokeColor=inherit;top=0;left=0;bottom=0;right=0;collapsible=0;dropTarget=0;fillColor=none;points=[[0,0.5],[1,0.5]];portConstraint=eastwest;fontSize=16;" vertex="1" parent="o6MVL9wAELzBekAkcaxR-93">
          <mxGeometry y="91" width="240" height="24" as="geometry" />
        </mxCell>
        <mxCell id="o6MVL9wAELzBekAkcaxR-235" value="3" style="shape=partialRectangle;html=1;whiteSpace=wrap;connectable=0;strokeColor=inherit;overflow=hidden;fillColor=none;top=0;left=0;bottom=0;right=0;pointerEvents=1;fontSize=16;" vertex="1" parent="o6MVL9wAELzBekAkcaxR-161">
          <mxGeometry width="51" height="24" as="geometry">
            <mxRectangle width="51" height="24" as="alternateBounds" />
          </mxGeometry>
        </mxCell>
        <mxCell id="o6MVL9wAELzBekAkcaxR-162" value="brimstone" style="shape=partialRectangle;html=1;whiteSpace=wrap;connectable=0;strokeColor=inherit;overflow=hidden;fillColor=none;top=0;left=0;bottom=0;right=0;pointerEvents=1;fontSize=16;" vertex="1" parent="o6MVL9wAELzBekAkcaxR-161">
          <mxGeometry x="51" width="189" height="24" as="geometry">
            <mxRectangle width="189" height="24" as="alternateBounds" />
          </mxGeometry>
        </mxCell>
        <mxCell id="o6MVL9wAELzBekAkcaxR-159" style="shape=tableRow;horizontal=0;startSize=0;swimlaneHead=0;swimlaneBody=0;strokeColor=inherit;top=0;left=0;bottom=0;right=0;collapsible=0;dropTarget=0;fillColor=none;points=[[0,0.5],[1,0.5]];portConstraint=eastwest;fontSize=16;" vertex="1" parent="o6MVL9wAELzBekAkcaxR-93">
          <mxGeometry y="115" width="240" height="23" as="geometry" />
        </mxCell>
        <mxCell id="o6MVL9wAELzBekAkcaxR-236" value="4" style="shape=partialRectangle;html=1;whiteSpace=wrap;connectable=0;strokeColor=inherit;overflow=hidden;fillColor=none;top=0;left=0;bottom=0;right=0;pointerEvents=1;fontSize=16;" vertex="1" parent="o6MVL9wAELzBekAkcaxR-159">
          <mxGeometry width="51" height="23" as="geometry">
            <mxRectangle width="51" height="23" as="alternateBounds" />
          </mxGeometry>
        </mxCell>
        <mxCell id="o6MVL9wAELzBekAkcaxR-160" value="chamber" style="shape=partialRectangle;html=1;whiteSpace=wrap;connectable=0;strokeColor=inherit;overflow=hidden;fillColor=none;top=0;left=0;bottom=0;right=0;pointerEvents=1;fontSize=16;" vertex="1" parent="o6MVL9wAELzBekAkcaxR-159">
          <mxGeometry x="51" width="189" height="23" as="geometry">
            <mxRectangle width="189" height="23" as="alternateBounds" />
          </mxGeometry>
        </mxCell>
        <mxCell id="o6MVL9wAELzBekAkcaxR-157" style="shape=tableRow;horizontal=0;startSize=0;swimlaneHead=0;swimlaneBody=0;strokeColor=inherit;top=0;left=0;bottom=0;right=0;collapsible=0;dropTarget=0;fillColor=none;points=[[0,0.5],[1,0.5]];portConstraint=eastwest;fontSize=16;" vertex="1" parent="o6MVL9wAELzBekAkcaxR-93">
          <mxGeometry y="138" width="240" height="24" as="geometry" />
        </mxCell>
        <mxCell id="o6MVL9wAELzBekAkcaxR-237" value="5" style="shape=partialRectangle;html=1;whiteSpace=wrap;connectable=0;strokeColor=inherit;overflow=hidden;fillColor=none;top=0;left=0;bottom=0;right=0;pointerEvents=1;fontSize=16;" vertex="1" parent="o6MVL9wAELzBekAkcaxR-157">
          <mxGeometry width="51" height="24" as="geometry">
            <mxRectangle width="51" height="24" as="alternateBounds" />
          </mxGeometry>
        </mxCell>
        <mxCell id="o6MVL9wAELzBekAkcaxR-158" value="cypher" style="shape=partialRectangle;html=1;whiteSpace=wrap;connectable=0;strokeColor=inherit;overflow=hidden;fillColor=none;top=0;left=0;bottom=0;right=0;pointerEvents=1;fontSize=16;" vertex="1" parent="o6MVL9wAELzBekAkcaxR-157">
          <mxGeometry x="51" width="189" height="24" as="geometry">
            <mxRectangle width="189" height="24" as="alternateBounds" />
          </mxGeometry>
        </mxCell>
        <mxCell id="o6MVL9wAELzBekAkcaxR-155" style="shape=tableRow;horizontal=0;startSize=0;swimlaneHead=0;swimlaneBody=0;strokeColor=inherit;top=0;left=0;bottom=0;right=0;collapsible=0;dropTarget=0;fillColor=none;points=[[0,0.5],[1,0.5]];portConstraint=eastwest;fontSize=16;" vertex="1" parent="o6MVL9wAELzBekAkcaxR-93">
          <mxGeometry y="162" width="240" height="24" as="geometry" />
        </mxCell>
        <mxCell id="o6MVL9wAELzBekAkcaxR-238" value="6" style="shape=partialRectangle;html=1;whiteSpace=wrap;connectable=0;strokeColor=inherit;overflow=hidden;fillColor=none;top=0;left=0;bottom=0;right=0;pointerEvents=1;fontSize=16;" vertex="1" parent="o6MVL9wAELzBekAkcaxR-155">
          <mxGeometry width="51" height="24" as="geometry">
            <mxRectangle width="51" height="24" as="alternateBounds" />
          </mxGeometry>
        </mxCell>
        <mxCell id="o6MVL9wAELzBekAkcaxR-156" value="gekko" style="shape=partialRectangle;html=1;whiteSpace=wrap;connectable=0;strokeColor=inherit;overflow=hidden;fillColor=none;top=0;left=0;bottom=0;right=0;pointerEvents=1;fontSize=16;" vertex="1" parent="o6MVL9wAELzBekAkcaxR-155">
          <mxGeometry x="51" width="189" height="24" as="geometry">
            <mxRectangle width="189" height="24" as="alternateBounds" />
          </mxGeometry>
        </mxCell>
        <mxCell id="o6MVL9wAELzBekAkcaxR-153" style="shape=tableRow;horizontal=0;startSize=0;swimlaneHead=0;swimlaneBody=0;strokeColor=inherit;top=0;left=0;bottom=0;right=0;collapsible=0;dropTarget=0;fillColor=none;points=[[0,0.5],[1,0.5]];portConstraint=eastwest;fontSize=16;" vertex="1" parent="o6MVL9wAELzBekAkcaxR-93">
          <mxGeometry y="186" width="240" height="23" as="geometry" />
        </mxCell>
        <mxCell id="o6MVL9wAELzBekAkcaxR-239" value="7" style="shape=partialRectangle;html=1;whiteSpace=wrap;connectable=0;strokeColor=inherit;overflow=hidden;fillColor=none;top=0;left=0;bottom=0;right=0;pointerEvents=1;fontSize=16;" vertex="1" parent="o6MVL9wAELzBekAkcaxR-153">
          <mxGeometry width="51" height="23" as="geometry">
            <mxRectangle width="51" height="23" as="alternateBounds" />
          </mxGeometry>
        </mxCell>
        <mxCell id="o6MVL9wAELzBekAkcaxR-154" value="jett" style="shape=partialRectangle;html=1;whiteSpace=wrap;connectable=0;strokeColor=inherit;overflow=hidden;fillColor=none;top=0;left=0;bottom=0;right=0;pointerEvents=1;fontSize=16;" vertex="1" parent="o6MVL9wAELzBekAkcaxR-153">
          <mxGeometry x="51" width="189" height="23" as="geometry">
            <mxRectangle width="189" height="23" as="alternateBounds" />
          </mxGeometry>
        </mxCell>
        <mxCell id="o6MVL9wAELzBekAkcaxR-151" style="shape=tableRow;horizontal=0;startSize=0;swimlaneHead=0;swimlaneBody=0;strokeColor=inherit;top=0;left=0;bottom=0;right=0;collapsible=0;dropTarget=0;fillColor=none;points=[[0,0.5],[1,0.5]];portConstraint=eastwest;fontSize=16;" vertex="1" parent="o6MVL9wAELzBekAkcaxR-93">
          <mxGeometry y="209" width="240" height="24" as="geometry" />
        </mxCell>
        <mxCell id="o6MVL9wAELzBekAkcaxR-240" value="8" style="shape=partialRectangle;html=1;whiteSpace=wrap;connectable=0;strokeColor=inherit;overflow=hidden;fillColor=none;top=0;left=0;bottom=0;right=0;pointerEvents=1;fontSize=16;" vertex="1" parent="o6MVL9wAELzBekAkcaxR-151">
          <mxGeometry width="51" height="24" as="geometry">
            <mxRectangle width="51" height="24" as="alternateBounds" />
          </mxGeometry>
        </mxCell>
        <mxCell id="o6MVL9wAELzBekAkcaxR-152" value="kay/o" style="shape=partialRectangle;html=1;whiteSpace=wrap;connectable=0;strokeColor=inherit;overflow=hidden;fillColor=none;top=0;left=0;bottom=0;right=0;pointerEvents=1;fontSize=16;" vertex="1" parent="o6MVL9wAELzBekAkcaxR-151">
          <mxGeometry x="51" width="189" height="24" as="geometry">
            <mxRectangle width="189" height="24" as="alternateBounds" />
          </mxGeometry>
        </mxCell>
        <mxCell id="o6MVL9wAELzBekAkcaxR-149" style="shape=tableRow;horizontal=0;startSize=0;swimlaneHead=0;swimlaneBody=0;strokeColor=inherit;top=0;left=0;bottom=0;right=0;collapsible=0;dropTarget=0;fillColor=none;points=[[0,0.5],[1,0.5]];portConstraint=eastwest;fontSize=16;" vertex="1" parent="o6MVL9wAELzBekAkcaxR-93">
          <mxGeometry y="233" width="240" height="24" as="geometry" />
        </mxCell>
        <mxCell id="o6MVL9wAELzBekAkcaxR-241" value="9" style="shape=partialRectangle;html=1;whiteSpace=wrap;connectable=0;strokeColor=inherit;overflow=hidden;fillColor=none;top=0;left=0;bottom=0;right=0;pointerEvents=1;fontSize=16;" vertex="1" parent="o6MVL9wAELzBekAkcaxR-149">
          <mxGeometry width="51" height="24" as="geometry">
            <mxRectangle width="51" height="24" as="alternateBounds" />
          </mxGeometry>
        </mxCell>
        <mxCell id="o6MVL9wAELzBekAkcaxR-150" value="killjoy" style="shape=partialRectangle;html=1;whiteSpace=wrap;connectable=0;strokeColor=inherit;overflow=hidden;fillColor=none;top=0;left=0;bottom=0;right=0;pointerEvents=1;fontSize=16;" vertex="1" parent="o6MVL9wAELzBekAkcaxR-149">
          <mxGeometry x="51" width="189" height="24" as="geometry">
            <mxRectangle width="189" height="24" as="alternateBounds" />
          </mxGeometry>
        </mxCell>
        <mxCell id="o6MVL9wAELzBekAkcaxR-147" style="shape=tableRow;horizontal=0;startSize=0;swimlaneHead=0;swimlaneBody=0;strokeColor=inherit;top=0;left=0;bottom=0;right=0;collapsible=0;dropTarget=0;fillColor=none;points=[[0,0.5],[1,0.5]];portConstraint=eastwest;fontSize=16;" vertex="1" parent="o6MVL9wAELzBekAkcaxR-93">
          <mxGeometry y="257" width="240" height="23" as="geometry" />
        </mxCell>
        <mxCell id="o6MVL9wAELzBekAkcaxR-242" value="10" style="shape=partialRectangle;html=1;whiteSpace=wrap;connectable=0;strokeColor=inherit;overflow=hidden;fillColor=none;top=0;left=0;bottom=0;right=0;pointerEvents=1;fontSize=16;" vertex="1" parent="o6MVL9wAELzBekAkcaxR-147">
          <mxGeometry width="51" height="23" as="geometry">
            <mxRectangle width="51" height="23" as="alternateBounds" />
          </mxGeometry>
        </mxCell>
        <mxCell id="o6MVL9wAELzBekAkcaxR-148" value="neon" style="shape=partialRectangle;html=1;whiteSpace=wrap;connectable=0;strokeColor=inherit;overflow=hidden;fillColor=none;top=0;left=0;bottom=0;right=0;pointerEvents=1;fontSize=16;" vertex="1" parent="o6MVL9wAELzBekAkcaxR-147">
          <mxGeometry x="51" width="189" height="23" as="geometry">
            <mxRectangle width="189" height="23" as="alternateBounds" />
          </mxGeometry>
        </mxCell>
        <mxCell id="o6MVL9wAELzBekAkcaxR-145" style="shape=tableRow;horizontal=0;startSize=0;swimlaneHead=0;swimlaneBody=0;strokeColor=inherit;top=0;left=0;bottom=0;right=0;collapsible=0;dropTarget=0;fillColor=none;points=[[0,0.5],[1,0.5]];portConstraint=eastwest;fontSize=16;" vertex="1" parent="o6MVL9wAELzBekAkcaxR-93">
          <mxGeometry y="280" width="240" height="24" as="geometry" />
        </mxCell>
        <mxCell id="o6MVL9wAELzBekAkcaxR-243" value="11" style="shape=partialRectangle;html=1;whiteSpace=wrap;connectable=0;strokeColor=inherit;overflow=hidden;fillColor=none;top=0;left=0;bottom=0;right=0;pointerEvents=1;fontSize=16;" vertex="1" parent="o6MVL9wAELzBekAkcaxR-145">
          <mxGeometry width="51" height="24" as="geometry">
            <mxRectangle width="51" height="24" as="alternateBounds" />
          </mxGeometry>
        </mxCell>
        <mxCell id="o6MVL9wAELzBekAkcaxR-146" value="omen" style="shape=partialRectangle;html=1;whiteSpace=wrap;connectable=0;strokeColor=inherit;overflow=hidden;fillColor=none;top=0;left=0;bottom=0;right=0;pointerEvents=1;fontSize=16;" vertex="1" parent="o6MVL9wAELzBekAkcaxR-145">
          <mxGeometry x="51" width="189" height="24" as="geometry">
            <mxRectangle width="189" height="24" as="alternateBounds" />
          </mxGeometry>
        </mxCell>
        <mxCell id="o6MVL9wAELzBekAkcaxR-143" style="shape=tableRow;horizontal=0;startSize=0;swimlaneHead=0;swimlaneBody=0;strokeColor=inherit;top=0;left=0;bottom=0;right=0;collapsible=0;dropTarget=0;fillColor=none;points=[[0,0.5],[1,0.5]];portConstraint=eastwest;fontSize=16;" vertex="1" parent="o6MVL9wAELzBekAkcaxR-93">
          <mxGeometry y="304" width="240" height="23" as="geometry" />
        </mxCell>
        <mxCell id="o6MVL9wAELzBekAkcaxR-244" value="12" style="shape=partialRectangle;html=1;whiteSpace=wrap;connectable=0;strokeColor=inherit;overflow=hidden;fillColor=none;top=0;left=0;bottom=0;right=0;pointerEvents=1;fontSize=16;" vertex="1" parent="o6MVL9wAELzBekAkcaxR-143">
          <mxGeometry width="51" height="23" as="geometry">
            <mxRectangle width="51" height="23" as="alternateBounds" />
          </mxGeometry>
        </mxCell>
        <mxCell id="o6MVL9wAELzBekAkcaxR-144" value="phoenix" style="shape=partialRectangle;html=1;whiteSpace=wrap;connectable=0;strokeColor=inherit;overflow=hidden;fillColor=none;top=0;left=0;bottom=0;right=0;pointerEvents=1;fontSize=16;" vertex="1" parent="o6MVL9wAELzBekAkcaxR-143">
          <mxGeometry x="51" width="189" height="23" as="geometry">
            <mxRectangle width="189" height="23" as="alternateBounds" />
          </mxGeometry>
        </mxCell>
        <mxCell id="o6MVL9wAELzBekAkcaxR-97" value="" style="shape=tableRow;horizontal=0;startSize=0;swimlaneHead=0;swimlaneBody=0;strokeColor=inherit;top=0;left=0;bottom=0;right=0;collapsible=0;dropTarget=0;fillColor=none;points=[[0,0.5],[1,0.5]];portConstraint=eastwest;fontSize=16;" vertex="1" parent="o6MVL9wAELzBekAkcaxR-93">
          <mxGeometry y="327" width="240" height="29" as="geometry" />
        </mxCell>
        <mxCell id="o6MVL9wAELzBekAkcaxR-245" value="13" style="shape=partialRectangle;html=1;whiteSpace=wrap;connectable=0;strokeColor=inherit;overflow=hidden;fillColor=none;top=0;left=0;bottom=0;right=0;pointerEvents=1;fontSize=16;" vertex="1" parent="o6MVL9wAELzBekAkcaxR-97">
          <mxGeometry width="51" height="29" as="geometry">
            <mxRectangle width="51" height="29" as="alternateBounds" />
          </mxGeometry>
        </mxCell>
        <mxCell id="o6MVL9wAELzBekAkcaxR-98" value="raze" style="shape=partialRectangle;html=1;whiteSpace=wrap;connectable=0;strokeColor=inherit;overflow=hidden;fillColor=none;top=0;left=0;bottom=0;right=0;pointerEvents=1;fontSize=16;" vertex="1" parent="o6MVL9wAELzBekAkcaxR-97">
          <mxGeometry x="51" width="189" height="29" as="geometry">
            <mxRectangle width="189" height="29" as="alternateBounds" />
          </mxGeometry>
        </mxCell>
        <mxCell id="o6MVL9wAELzBekAkcaxR-100" value="" style="shape=tableRow;horizontal=0;startSize=0;swimlaneHead=0;swimlaneBody=0;strokeColor=inherit;top=0;left=0;bottom=0;right=0;collapsible=0;dropTarget=0;fillColor=none;points=[[0,0.5],[1,0.5]];portConstraint=eastwest;fontSize=16;" vertex="1" parent="o6MVL9wAELzBekAkcaxR-93">
          <mxGeometry y="356" width="240" height="26" as="geometry" />
        </mxCell>
        <mxCell id="o6MVL9wAELzBekAkcaxR-246" value="14" style="shape=partialRectangle;html=1;whiteSpace=wrap;connectable=0;strokeColor=inherit;overflow=hidden;fillColor=none;top=0;left=0;bottom=0;right=0;pointerEvents=1;fontSize=16;" vertex="1" parent="o6MVL9wAELzBekAkcaxR-100">
          <mxGeometry width="51" height="26" as="geometry">
            <mxRectangle width="51" height="26" as="alternateBounds" />
          </mxGeometry>
        </mxCell>
        <mxCell id="o6MVL9wAELzBekAkcaxR-101" value="reyna" style="shape=partialRectangle;html=1;whiteSpace=wrap;connectable=0;strokeColor=inherit;overflow=hidden;fillColor=none;top=0;left=0;bottom=0;right=0;pointerEvents=1;fontSize=16;" vertex="1" parent="o6MVL9wAELzBekAkcaxR-100">
          <mxGeometry x="51" width="189" height="26" as="geometry">
            <mxRectangle width="189" height="26" as="alternateBounds" />
          </mxGeometry>
        </mxCell>
        <mxCell id="o6MVL9wAELzBekAkcaxR-103" style="shape=tableRow;horizontal=0;startSize=0;swimlaneHead=0;swimlaneBody=0;strokeColor=inherit;top=0;left=0;bottom=0;right=0;collapsible=0;dropTarget=0;fillColor=none;points=[[0,0.5],[1,0.5]];portConstraint=eastwest;fontSize=16;" vertex="1" parent="o6MVL9wAELzBekAkcaxR-93">
          <mxGeometry y="382" width="240" height="28" as="geometry" />
        </mxCell>
        <mxCell id="o6MVL9wAELzBekAkcaxR-247" value="15" style="shape=partialRectangle;html=1;whiteSpace=wrap;connectable=0;strokeColor=inherit;overflow=hidden;fillColor=none;top=0;left=0;bottom=0;right=0;pointerEvents=1;fontSize=16;" vertex="1" parent="o6MVL9wAELzBekAkcaxR-103">
          <mxGeometry width="51" height="28" as="geometry">
            <mxRectangle width="51" height="28" as="alternateBounds" />
          </mxGeometry>
        </mxCell>
        <mxCell id="o6MVL9wAELzBekAkcaxR-104" value="sage" style="shape=partialRectangle;html=1;whiteSpace=wrap;connectable=0;strokeColor=inherit;overflow=hidden;fillColor=none;top=0;left=0;bottom=0;right=0;pointerEvents=1;fontSize=16;" vertex="1" parent="o6MVL9wAELzBekAkcaxR-103">
          <mxGeometry x="51" width="189" height="28" as="geometry">
            <mxRectangle width="189" height="28" as="alternateBounds" />
          </mxGeometry>
        </mxCell>
        <mxCell id="o6MVL9wAELzBekAkcaxR-106" style="shape=tableRow;horizontal=0;startSize=0;swimlaneHead=0;swimlaneBody=0;strokeColor=inherit;top=0;left=0;bottom=0;right=0;collapsible=0;dropTarget=0;fillColor=none;points=[[0,0.5],[1,0.5]];portConstraint=eastwest;fontSize=16;" vertex="1" parent="o6MVL9wAELzBekAkcaxR-93">
          <mxGeometry y="410" width="240" height="20" as="geometry" />
        </mxCell>
        <mxCell id="o6MVL9wAELzBekAkcaxR-248" value="16" style="shape=partialRectangle;html=1;whiteSpace=wrap;connectable=0;strokeColor=inherit;overflow=hidden;fillColor=none;top=0;left=0;bottom=0;right=0;pointerEvents=1;fontSize=16;" vertex="1" parent="o6MVL9wAELzBekAkcaxR-106">
          <mxGeometry width="51" height="20" as="geometry">
            <mxRectangle width="51" height="20" as="alternateBounds" />
          </mxGeometry>
        </mxCell>
        <mxCell id="o6MVL9wAELzBekAkcaxR-107" value="skye" style="shape=partialRectangle;html=1;whiteSpace=wrap;connectable=0;strokeColor=inherit;overflow=hidden;fillColor=none;top=0;left=0;bottom=0;right=0;pointerEvents=1;fontSize=16;" vertex="1" parent="o6MVL9wAELzBekAkcaxR-106">
          <mxGeometry x="51" width="189" height="20" as="geometry">
            <mxRectangle width="189" height="20" as="alternateBounds" />
          </mxGeometry>
        </mxCell>
        <mxCell id="o6MVL9wAELzBekAkcaxR-109" style="shape=tableRow;horizontal=0;startSize=0;swimlaneHead=0;swimlaneBody=0;strokeColor=inherit;top=0;left=0;bottom=0;right=0;collapsible=0;dropTarget=0;fillColor=none;points=[[0,0.5],[1,0.5]];portConstraint=eastwest;fontSize=16;" vertex="1" parent="o6MVL9wAELzBekAkcaxR-93">
          <mxGeometry y="430" width="240" height="28" as="geometry" />
        </mxCell>
        <mxCell id="o6MVL9wAELzBekAkcaxR-249" value="17" style="shape=partialRectangle;html=1;whiteSpace=wrap;connectable=0;strokeColor=inherit;overflow=hidden;fillColor=none;top=0;left=0;bottom=0;right=0;pointerEvents=1;fontSize=16;" vertex="1" parent="o6MVL9wAELzBekAkcaxR-109">
          <mxGeometry width="51" height="28" as="geometry">
            <mxRectangle width="51" height="28" as="alternateBounds" />
          </mxGeometry>
        </mxCell>
        <mxCell id="o6MVL9wAELzBekAkcaxR-110" value="sova" style="shape=partialRectangle;html=1;whiteSpace=wrap;connectable=0;strokeColor=inherit;overflow=hidden;fillColor=none;top=0;left=0;bottom=0;right=0;pointerEvents=1;fontSize=16;" vertex="1" parent="o6MVL9wAELzBekAkcaxR-109">
          <mxGeometry x="51" width="189" height="28" as="geometry">
            <mxRectangle width="189" height="28" as="alternateBounds" />
          </mxGeometry>
        </mxCell>
        <mxCell id="o6MVL9wAELzBekAkcaxR-112" style="shape=tableRow;horizontal=0;startSize=0;swimlaneHead=0;swimlaneBody=0;strokeColor=inherit;top=0;left=0;bottom=0;right=0;collapsible=0;dropTarget=0;fillColor=none;points=[[0,0.5],[1,0.5]];portConstraint=eastwest;fontSize=16;" vertex="1" parent="o6MVL9wAELzBekAkcaxR-93">
          <mxGeometry y="458" width="240" height="26" as="geometry" />
        </mxCell>
        <mxCell id="o6MVL9wAELzBekAkcaxR-250" value="18" style="shape=partialRectangle;html=1;whiteSpace=wrap;connectable=0;strokeColor=inherit;overflow=hidden;fillColor=none;top=0;left=0;bottom=0;right=0;pointerEvents=1;fontSize=16;" vertex="1" parent="o6MVL9wAELzBekAkcaxR-112">
          <mxGeometry width="51" height="26" as="geometry">
            <mxRectangle width="51" height="26" as="alternateBounds" />
          </mxGeometry>
        </mxCell>
        <mxCell id="o6MVL9wAELzBekAkcaxR-113" value="viper" style="shape=partialRectangle;html=1;whiteSpace=wrap;connectable=0;strokeColor=inherit;overflow=hidden;fillColor=none;top=0;left=0;bottom=0;right=0;pointerEvents=1;fontSize=16;" vertex="1" parent="o6MVL9wAELzBekAkcaxR-112">
          <mxGeometry x="51" width="189" height="26" as="geometry">
            <mxRectangle width="189" height="26" as="alternateBounds" />
          </mxGeometry>
        </mxCell>
        <mxCell id="o6MVL9wAELzBekAkcaxR-115" style="shape=tableRow;horizontal=0;startSize=0;swimlaneHead=0;swimlaneBody=0;strokeColor=inherit;top=0;left=0;bottom=0;right=0;collapsible=0;dropTarget=0;fillColor=none;points=[[0,0.5],[1,0.5]];portConstraint=eastwest;fontSize=16;" vertex="1" parent="o6MVL9wAELzBekAkcaxR-93">
          <mxGeometry y="484" width="240" height="26" as="geometry" />
        </mxCell>
        <mxCell id="o6MVL9wAELzBekAkcaxR-251" value="19" style="shape=partialRectangle;html=1;whiteSpace=wrap;connectable=0;strokeColor=inherit;overflow=hidden;fillColor=none;top=0;left=0;bottom=0;right=0;pointerEvents=1;fontSize=16;" vertex="1" parent="o6MVL9wAELzBekAkcaxR-115">
          <mxGeometry width="51" height="26" as="geometry">
            <mxRectangle width="51" height="26" as="alternateBounds" />
          </mxGeometry>
        </mxCell>
        <mxCell id="o6MVL9wAELzBekAkcaxR-116" value="yoru" style="shape=partialRectangle;html=1;whiteSpace=wrap;connectable=0;strokeColor=inherit;overflow=hidden;fillColor=none;top=0;left=0;bottom=0;right=0;pointerEvents=1;fontSize=16;" vertex="1" parent="o6MVL9wAELzBekAkcaxR-115">
          <mxGeometry x="51" width="189" height="26" as="geometry">
            <mxRectangle width="189" height="26" as="alternateBounds" />
          </mxGeometry>
        </mxCell>
        <mxCell id="o6MVL9wAELzBekAkcaxR-166" value="maps" style="shape=table;startSize=20;container=1;collapsible=0;childLayout=tableLayout;strokeColor=default;fontSize=16;fontStyle=1" vertex="1" parent="1">
          <mxGeometry x="520" y="80" width="240" height="257" as="geometry" />
        </mxCell>
        <mxCell id="o6MVL9wAELzBekAkcaxR-252" style="shape=tableRow;horizontal=0;startSize=0;swimlaneHead=0;swimlaneBody=0;strokeColor=inherit;top=0;left=0;bottom=0;right=0;collapsible=0;dropTarget=0;fillColor=none;points=[[0,0.5],[1,0.5]];portConstraint=eastwest;fontSize=16;" vertex="1" parent="o6MVL9wAELzBekAkcaxR-166">
          <mxGeometry y="20" width="240" height="24" as="geometry" />
        </mxCell>
        <mxCell id="o6MVL9wAELzBekAkcaxR-253" value="&lt;b&gt;PK&lt;/b&gt;" style="shape=partialRectangle;html=1;whiteSpace=wrap;connectable=0;strokeColor=inherit;overflow=hidden;fillColor=none;top=0;left=0;bottom=0;right=0;pointerEvents=1;fontSize=16;" vertex="1" parent="o6MVL9wAELzBekAkcaxR-252">
          <mxGeometry width="51" height="24" as="geometry">
            <mxRectangle width="51" height="24" as="alternateBounds" />
          </mxGeometry>
        </mxCell>
        <mxCell id="o6MVL9wAELzBekAkcaxR-254" value="map_id(INT_AUTO)" style="shape=partialRectangle;html=1;whiteSpace=wrap;connectable=0;strokeColor=inherit;overflow=hidden;fillColor=none;top=0;left=0;bottom=0;right=0;pointerEvents=1;fontSize=16;" vertex="1" parent="o6MVL9wAELzBekAkcaxR-252">
          <mxGeometry x="51" width="189" height="24" as="geometry">
            <mxRectangle width="189" height="24" as="alternateBounds" />
          </mxGeometry>
        </mxCell>
        <mxCell id="o6MVL9wAELzBekAkcaxR-167" value="" style="shape=tableRow;horizontal=0;startSize=0;swimlaneHead=0;swimlaneBody=0;strokeColor=inherit;top=0;left=0;bottom=0;right=0;collapsible=0;dropTarget=0;fillColor=none;points=[[0,0.5],[1,0.5]];portConstraint=eastwest;fontSize=16;" vertex="1" parent="o6MVL9wAELzBekAkcaxR-166">
          <mxGeometry y="44" width="240" height="24" as="geometry" />
        </mxCell>
        <mxCell id="o6MVL9wAELzBekAkcaxR-205" value="1" style="shape=partialRectangle;html=1;whiteSpace=wrap;connectable=0;strokeColor=inherit;overflow=hidden;fillColor=none;top=0;left=0;bottom=0;right=0;pointerEvents=1;fontSize=16;" vertex="1" parent="o6MVL9wAELzBekAkcaxR-167">
          <mxGeometry width="51" height="24" as="geometry">
            <mxRectangle width="51" height="24" as="alternateBounds" />
          </mxGeometry>
        </mxCell>
        <mxCell id="o6MVL9wAELzBekAkcaxR-168" value="bind" style="shape=partialRectangle;html=1;whiteSpace=wrap;connectable=0;strokeColor=inherit;overflow=hidden;fillColor=none;top=0;left=0;bottom=0;right=0;pointerEvents=1;fontSize=16;" vertex="1" parent="o6MVL9wAELzBekAkcaxR-167">
          <mxGeometry x="51" width="189" height="24" as="geometry">
            <mxRectangle width="189" height="24" as="alternateBounds" />
          </mxGeometry>
        </mxCell>
        <mxCell id="o6MVL9wAELzBekAkcaxR-169" style="shape=tableRow;horizontal=0;startSize=0;swimlaneHead=0;swimlaneBody=0;strokeColor=inherit;top=0;left=0;bottom=0;right=0;collapsible=0;dropTarget=0;fillColor=none;points=[[0,0.5],[1,0.5]];portConstraint=eastwest;fontSize=16;" vertex="1" parent="o6MVL9wAELzBekAkcaxR-166">
          <mxGeometry y="68" width="240" height="23" as="geometry" />
        </mxCell>
        <mxCell id="o6MVL9wAELzBekAkcaxR-206" value="2" style="shape=partialRectangle;html=1;whiteSpace=wrap;connectable=0;strokeColor=inherit;overflow=hidden;fillColor=none;top=0;left=0;bottom=0;right=0;pointerEvents=1;fontSize=16;" vertex="1" parent="o6MVL9wAELzBekAkcaxR-169">
          <mxGeometry width="51" height="23" as="geometry">
            <mxRectangle width="51" height="23" as="alternateBounds" />
          </mxGeometry>
        </mxCell>
        <mxCell id="o6MVL9wAELzBekAkcaxR-170" value="haven" style="shape=partialRectangle;html=1;whiteSpace=wrap;connectable=0;strokeColor=inherit;overflow=hidden;fillColor=none;top=0;left=0;bottom=0;right=0;pointerEvents=1;fontSize=16;" vertex="1" parent="o6MVL9wAELzBekAkcaxR-169">
          <mxGeometry x="51" width="189" height="23" as="geometry">
            <mxRectangle width="189" height="23" as="alternateBounds" />
          </mxGeometry>
        </mxCell>
        <mxCell id="o6MVL9wAELzBekAkcaxR-171" style="shape=tableRow;horizontal=0;startSize=0;swimlaneHead=0;swimlaneBody=0;strokeColor=inherit;top=0;left=0;bottom=0;right=0;collapsible=0;dropTarget=0;fillColor=none;points=[[0,0.5],[1,0.5]];portConstraint=eastwest;fontSize=16;" vertex="1" parent="o6MVL9wAELzBekAkcaxR-166">
          <mxGeometry y="91" width="240" height="24" as="geometry" />
        </mxCell>
        <mxCell id="o6MVL9wAELzBekAkcaxR-207" value="3" style="shape=partialRectangle;html=1;whiteSpace=wrap;connectable=0;strokeColor=inherit;overflow=hidden;fillColor=none;top=0;left=0;bottom=0;right=0;pointerEvents=1;fontSize=16;" vertex="1" parent="o6MVL9wAELzBekAkcaxR-171">
          <mxGeometry width="51" height="24" as="geometry">
            <mxRectangle width="51" height="24" as="alternateBounds" />
          </mxGeometry>
        </mxCell>
        <mxCell id="o6MVL9wAELzBekAkcaxR-172" value="split" style="shape=partialRectangle;html=1;whiteSpace=wrap;connectable=0;strokeColor=inherit;overflow=hidden;fillColor=none;top=0;left=0;bottom=0;right=0;pointerEvents=1;fontSize=16;" vertex="1" parent="o6MVL9wAELzBekAkcaxR-171">
          <mxGeometry x="51" width="189" height="24" as="geometry">
            <mxRectangle width="189" height="24" as="alternateBounds" />
          </mxGeometry>
        </mxCell>
        <mxCell id="o6MVL9wAELzBekAkcaxR-173" style="shape=tableRow;horizontal=0;startSize=0;swimlaneHead=0;swimlaneBody=0;strokeColor=inherit;top=0;left=0;bottom=0;right=0;collapsible=0;dropTarget=0;fillColor=none;points=[[0,0.5],[1,0.5]];portConstraint=eastwest;fontSize=16;" vertex="1" parent="o6MVL9wAELzBekAkcaxR-166">
          <mxGeometry y="115" width="240" height="23" as="geometry" />
        </mxCell>
        <mxCell id="o6MVL9wAELzBekAkcaxR-208" value="4" style="shape=partialRectangle;html=1;whiteSpace=wrap;connectable=0;strokeColor=inherit;overflow=hidden;fillColor=none;top=0;left=0;bottom=0;right=0;pointerEvents=1;fontSize=16;" vertex="1" parent="o6MVL9wAELzBekAkcaxR-173">
          <mxGeometry width="51" height="23" as="geometry">
            <mxRectangle width="51" height="23" as="alternateBounds" />
          </mxGeometry>
        </mxCell>
        <mxCell id="o6MVL9wAELzBekAkcaxR-174" value="ascen" style="shape=partialRectangle;html=1;whiteSpace=wrap;connectable=0;strokeColor=inherit;overflow=hidden;fillColor=none;top=0;left=0;bottom=0;right=0;pointerEvents=1;fontSize=16;" vertex="1" parent="o6MVL9wAELzBekAkcaxR-173">
          <mxGeometry x="51" width="189" height="23" as="geometry">
            <mxRectangle width="189" height="23" as="alternateBounds" />
          </mxGeometry>
        </mxCell>
        <mxCell id="o6MVL9wAELzBekAkcaxR-175" style="shape=tableRow;horizontal=0;startSize=0;swimlaneHead=0;swimlaneBody=0;strokeColor=inherit;top=0;left=0;bottom=0;right=0;collapsible=0;dropTarget=0;fillColor=none;points=[[0,0.5],[1,0.5]];portConstraint=eastwest;fontSize=16;" vertex="1" parent="o6MVL9wAELzBekAkcaxR-166">
          <mxGeometry y="138" width="240" height="24" as="geometry" />
        </mxCell>
        <mxCell id="o6MVL9wAELzBekAkcaxR-209" value="5" style="shape=partialRectangle;html=1;whiteSpace=wrap;connectable=0;strokeColor=inherit;overflow=hidden;fillColor=none;top=0;left=0;bottom=0;right=0;pointerEvents=1;fontSize=16;" vertex="1" parent="o6MVL9wAELzBekAkcaxR-175">
          <mxGeometry width="51" height="24" as="geometry">
            <mxRectangle width="51" height="24" as="alternateBounds" />
          </mxGeometry>
        </mxCell>
        <mxCell id="o6MVL9wAELzBekAkcaxR-176" value="icebox" style="shape=partialRectangle;html=1;whiteSpace=wrap;connectable=0;strokeColor=inherit;overflow=hidden;fillColor=none;top=0;left=0;bottom=0;right=0;pointerEvents=1;fontSize=16;" vertex="1" parent="o6MVL9wAELzBekAkcaxR-175">
          <mxGeometry x="51" width="189" height="24" as="geometry">
            <mxRectangle width="189" height="24" as="alternateBounds" />
          </mxGeometry>
        </mxCell>
        <mxCell id="o6MVL9wAELzBekAkcaxR-177" style="shape=tableRow;horizontal=0;startSize=0;swimlaneHead=0;swimlaneBody=0;strokeColor=inherit;top=0;left=0;bottom=0;right=0;collapsible=0;dropTarget=0;fillColor=none;points=[[0,0.5],[1,0.5]];portConstraint=eastwest;fontSize=16;" vertex="1" parent="o6MVL9wAELzBekAkcaxR-166">
          <mxGeometry y="162" width="240" height="24" as="geometry" />
        </mxCell>
        <mxCell id="o6MVL9wAELzBekAkcaxR-210" value="6" style="shape=partialRectangle;html=1;whiteSpace=wrap;connectable=0;strokeColor=inherit;overflow=hidden;fillColor=none;top=0;left=0;bottom=0;right=0;pointerEvents=1;fontSize=16;" vertex="1" parent="o6MVL9wAELzBekAkcaxR-177">
          <mxGeometry width="51" height="24" as="geometry">
            <mxRectangle width="51" height="24" as="alternateBounds" />
          </mxGeometry>
        </mxCell>
        <mxCell id="o6MVL9wAELzBekAkcaxR-178" value="breeze" style="shape=partialRectangle;html=1;whiteSpace=wrap;connectable=0;strokeColor=inherit;overflow=hidden;fillColor=none;top=0;left=0;bottom=0;right=0;pointerEvents=1;fontSize=16;" vertex="1" parent="o6MVL9wAELzBekAkcaxR-177">
          <mxGeometry x="51" width="189" height="24" as="geometry">
            <mxRectangle width="189" height="24" as="alternateBounds" />
          </mxGeometry>
        </mxCell>
        <mxCell id="o6MVL9wAELzBekAkcaxR-179" style="shape=tableRow;horizontal=0;startSize=0;swimlaneHead=0;swimlaneBody=0;strokeColor=inherit;top=0;left=0;bottom=0;right=0;collapsible=0;dropTarget=0;fillColor=none;points=[[0,0.5],[1,0.5]];portConstraint=eastwest;fontSize=16;" vertex="1" parent="o6MVL9wAELzBekAkcaxR-166">
          <mxGeometry y="186" width="240" height="23" as="geometry" />
        </mxCell>
        <mxCell id="o6MVL9wAELzBekAkcaxR-211" value="7" style="shape=partialRectangle;html=1;whiteSpace=wrap;connectable=0;strokeColor=inherit;overflow=hidden;fillColor=none;top=0;left=0;bottom=0;right=0;pointerEvents=1;fontSize=16;" vertex="1" parent="o6MVL9wAELzBekAkcaxR-179">
          <mxGeometry width="51" height="23" as="geometry">
            <mxRectangle width="51" height="23" as="alternateBounds" />
          </mxGeometry>
        </mxCell>
        <mxCell id="o6MVL9wAELzBekAkcaxR-180" value="fracture" style="shape=partialRectangle;html=1;whiteSpace=wrap;connectable=0;strokeColor=inherit;overflow=hidden;fillColor=none;top=0;left=0;bottom=0;right=0;pointerEvents=1;fontSize=16;" vertex="1" parent="o6MVL9wAELzBekAkcaxR-179">
          <mxGeometry x="51" width="189" height="23" as="geometry">
            <mxRectangle width="189" height="23" as="alternateBounds" />
          </mxGeometry>
        </mxCell>
        <mxCell id="o6MVL9wAELzBekAkcaxR-181" style="shape=tableRow;horizontal=0;startSize=0;swimlaneHead=0;swimlaneBody=0;strokeColor=inherit;top=0;left=0;bottom=0;right=0;collapsible=0;dropTarget=0;fillColor=none;points=[[0,0.5],[1,0.5]];portConstraint=eastwest;fontSize=16;" vertex="1" parent="o6MVL9wAELzBekAkcaxR-166">
          <mxGeometry y="209" width="240" height="24" as="geometry" />
        </mxCell>
        <mxCell id="o6MVL9wAELzBekAkcaxR-212" value="8" style="shape=partialRectangle;html=1;whiteSpace=wrap;connectable=0;strokeColor=inherit;overflow=hidden;fillColor=none;top=0;left=0;bottom=0;right=0;pointerEvents=1;fontSize=16;" vertex="1" parent="o6MVL9wAELzBekAkcaxR-181">
          <mxGeometry width="51" height="24" as="geometry">
            <mxRectangle width="51" height="24" as="alternateBounds" />
          </mxGeometry>
        </mxCell>
        <mxCell id="o6MVL9wAELzBekAkcaxR-182" value="pearl" style="shape=partialRectangle;html=1;whiteSpace=wrap;connectable=0;strokeColor=inherit;overflow=hidden;fillColor=none;top=0;left=0;bottom=0;right=0;pointerEvents=1;fontSize=16;" vertex="1" parent="o6MVL9wAELzBekAkcaxR-181">
          <mxGeometry x="51" width="189" height="24" as="geometry">
            <mxRectangle width="189" height="24" as="alternateBounds" />
          </mxGeometry>
        </mxCell>
        <mxCell id="o6MVL9wAELzBekAkcaxR-183" style="shape=tableRow;horizontal=0;startSize=0;swimlaneHead=0;swimlaneBody=0;strokeColor=inherit;top=0;left=0;bottom=0;right=0;collapsible=0;dropTarget=0;fillColor=none;points=[[0,0.5],[1,0.5]];portConstraint=eastwest;fontSize=16;" vertex="1" parent="o6MVL9wAELzBekAkcaxR-166">
          <mxGeometry y="233" width="240" height="24" as="geometry" />
        </mxCell>
        <mxCell id="o6MVL9wAELzBekAkcaxR-213" value="9" style="shape=partialRectangle;html=1;whiteSpace=wrap;connectable=0;strokeColor=inherit;overflow=hidden;fillColor=none;top=0;left=0;bottom=0;right=0;pointerEvents=1;fontSize=16;" vertex="1" parent="o6MVL9wAELzBekAkcaxR-183">
          <mxGeometry width="51" height="24" as="geometry">
            <mxRectangle width="51" height="24" as="alternateBounds" />
          </mxGeometry>
        </mxCell>
        <mxCell id="o6MVL9wAELzBekAkcaxR-184" value="lotus" style="shape=partialRectangle;html=1;whiteSpace=wrap;connectable=0;strokeColor=inherit;overflow=hidden;fillColor=none;top=0;left=0;bottom=0;right=0;pointerEvents=1;fontSize=16;" vertex="1" parent="o6MVL9wAELzBekAkcaxR-183">
          <mxGeometry x="51" width="189" height="24" as="geometry">
            <mxRectangle width="189" height="24" as="alternateBounds" />
          </mxGeometry>
        </mxCell>
        <mxCell id="o6MVL9wAELzBekAkcaxR-259" style="edgeStyle=orthogonalEdgeStyle;rounded=0;orthogonalLoop=1;jettySize=auto;html=1;exitX=1;exitY=0.5;exitDx=0;exitDy=0;entryX=0;entryY=0.5;entryDx=0;entryDy=0;endArrow=ERoneToMany;endFill=0;" edge="1" parent="1" source="o6MVL9wAELzBekAkcaxR-62" target="o6MVL9wAELzBekAkcaxR-255">
          <mxGeometry relative="1" as="geometry" />
        </mxCell>
        <mxCell id="o6MVL9wAELzBekAkcaxR-261" style="edgeStyle=orthogonalEdgeStyle;rounded=0;orthogonalLoop=1;jettySize=auto;html=1;exitX=1;exitY=0.5;exitDx=0;exitDy=0;entryX=0;entryY=0.5;entryDx=0;entryDy=0;endArrow=ERoneToMany;endFill=0;" edge="1" parent="1" source="o6MVL9wAELzBekAkcaxR-46" target="o6MVL9wAELzBekAkcaxR-252">
          <mxGeometry relative="1" as="geometry" />
        </mxCell>
      </root>
    </mxGraphModel>
  </diagram>
</mxfile>
